# xmcd
#
# Track frame offsets:
#	150
#	11116
#	22623
#	37717
#	49055
#	63367
#	78601
#	92703
#	106860
#	120748
#	133158
#	146805
#	159372
#	176769
#
# Disc length: 2558 seconds
# Revision: 0
# Processed by: cddbd v1.5.2PL0 Copyright (c) Steve Scherf et al.
# Submitted via: dBpowerAMP V12.0
#
DISCID=b009fc0e
DTITLE=Niney The Observer - At King Tubby's -  Dub Plate Specials 1973-1975
DYEAR=2002
DGENRE=dub
TTITLE0=Set Dub Free
TTITLE1=Lately Dub
TTITLE2=Dub With Tubby
TTITLE3=Dub Exclusive
TTITLE4=In Love With Dub
TTITLE5=No More Dub
TTITLE6=Here Comes Dub
TTITLE7=Tenement Dub
TTITLE8=Swallow Field and Dub
TTITLE9=Dubbing With Sally
TTITLE10=Dark Side Of Dub
TTITLE11=Dub In Silver
TTITLE12=Truthful Dub [CD bonus track)
TTITLE13=Dub Born Here [CD bonus track)
EXTD=
EXTT0=
EXTT1=
EXTT2=
EXTT3=
EXTT4=
EXTT5=
EXTT6=
EXTT7=
EXTT8=
EXTT9=
EXTT10=
EXTT11=
EXTT12=
EXTT13=
PLAYORDER=
